<svg width="64" height="11" viewBox="0 0 64 11" fill="none" xmlns="http://www.w3.org/2000/svg">
<path d="M38.771 5.31037C38.771 6.36044 38.4597 7.38694 37.8764 8.26011C37.2931 9.13328 36.464 9.81393 35.494 10.216C34.524 10.6181 33.4565 10.7236 32.4265 10.5191C31.3966 10.3146 30.4503 9.80937 29.7075 9.06723C28.9646 8.32508 28.4584 7.37935 28.2529 6.34959C28.0474 5.31982 28.1518 4.25225 28.5529 3.28181C28.9541 2.31138 29.6339 1.48165 30.5065 0.897509C31.3791 0.313367 32.4053 0.00103813 33.4553 0H33.4606C36.3953 0 38.771 2.37825 38.771 5.31037ZM25.121 0.0577483C22.1705 0.0577483 19.8053 2.37825 19.8053 5.2815C19.8053 8.21625 22.1101 10.4895 25.0737 10.4895C25.9111 10.4895 26.6303 10.3241 27.515 9.90937V7.61774C26.738 8.39737 26.0476 8.70975 25.1656 8.70975C23.2047 8.70975 21.8135 7.287 21.8135 5.26575C21.8135 3.3495 23.2493 1.8375 25.0763 1.8375C26.0056 1.8375 26.7091 2.16825 27.5176 2.961V0.669375C26.7828 0.267288 25.9586 0.0569289 25.121 0.0577483ZM16.322 4.11337C15.1538 3.68025 14.81 3.39675 14.81 2.856C14.81 2.22862 15.4216 1.74825 16.2616 1.74825C16.8443 1.74825 17.3247 1.98712 17.8313 2.55675L18.8498 1.22325C18.043 0.504182 16.9984 0.109533 15.9177 0.115499C14.1511 0.115499 12.8045 1.34137 12.8045 2.97412C12.8045 4.34962 13.4318 5.05312 15.2615 5.712C16.0253 5.98237 16.4112 6.16087 16.6081 6.28162C16.7868 6.38845 16.9345 6.54004 17.0367 6.72142C17.1389 6.90279 17.192 7.10769 17.1908 7.31587C17.1908 8.12437 16.5477 8.72287 15.6788 8.72287C14.7496 8.72287 14.0015 8.25825 13.5552 7.392L12.2978 8.60212C13.1956 9.91987 14.2718 10.5026 15.755 10.5026C17.7788 10.5026 19.1964 9.156 19.1964 7.224C19.1911 5.64112 18.5348 4.9245 16.322 4.11337ZM63.4985 0.847875C63.4992 1.04932 63.42 1.24283 63.2783 1.38601C63.1366 1.52919 62.9439 1.61036 62.7425 1.61175C62.6421 1.61209 62.5426 1.59258 62.4497 1.55431C62.3569 1.51604 62.2726 1.45979 62.2016 1.38879C62.1306 1.31779 62.0743 1.23344 62.036 1.14061C61.9978 1.04777 61.9783 0.948285 61.9786 0.847875V0.839999C61.9731 0.736429 61.9888 0.632822 62.0247 0.535536C62.0607 0.43825 62.1161 0.349337 62.1877 0.274254C62.2592 0.199171 62.3454 0.139501 62.4408 0.0989066C62.5363 0.0583125 62.639 0.0376519 62.7427 0.0381893C62.8464 0.0387267 62.9489 0.0604524 63.044 0.102033C63.139 0.143614 63.2245 0.204172 63.2953 0.279992C63.366 0.355813 63.4206 0.445295 63.4555 0.542949C63.4905 0.640602 63.5051 0.744367 63.4985 0.847875ZM63.3436 0.850498C63.345 0.769486 63.3304 0.688995 63.3007 0.613619C63.271 0.538244 63.2267 0.469462 63.1704 0.411202C63.1141 0.352943 63.0468 0.306347 62.9725 0.274077C62.8982 0.241806 62.8182 0.224492 62.7372 0.223125C62.6559 0.223802 62.5755 0.240626 62.5007 0.272622C62.4259 0.304619 62.3582 0.35115 62.3016 0.409515C62.2449 0.46788 62.2004 0.536917 62.1707 0.612618C62.1409 0.688319 62.1265 0.769176 62.1282 0.850498C62.1282 1.197 62.4012 1.47787 62.7372 1.47787C62.8182 1.47651 62.8982 1.45919 62.9725 1.42692C63.0468 1.39465 63.1141 1.34806 63.1704 1.2898C63.2267 1.23154 63.271 1.16275 63.3007 1.08738C63.3304 1.012 63.345 0.93151 63.3436 0.850498ZM9.61247 10.2637H11.5602V0.280873H9.61247V10.2637ZM42.9552 6.98775L40.2935 0.283499H38.1672L42.404 10.521H43.4514L47.7642 0.283499H45.6537L42.9552 6.98775ZM48.641 10.2637H54.164V8.57325H50.5887V5.87737H54.0327V4.18687H50.5887V1.97137H54.164V0.280873H48.641V10.2637ZM62.8396 0.926624L63.1283 1.28887H62.8737L62.627 0.947625V1.28887H62.417V0.412124H62.6978C62.9105 0.412124 63.0286 0.506625 63.0286 0.6825C63.0312 0.80325 62.963 0.892499 62.8396 0.926624ZM62.8238 0.685124C62.8238 0.608999 62.7687 0.572248 62.6664 0.572248H62.6296V0.800623H62.6664C62.7687 0.800623 62.8238 0.763874 62.8238 0.685124ZM59.6003 6.0585L62.7425 10.2637H60.3485L57.6526 6.25275H57.398V10.2637H55.4529V0.280873H58.3404C60.5847 0.280873 61.8736 1.35975 61.8736 3.22875C61.8736 4.75912 61.0651 5.76187 59.6003 6.0585ZM59.8707 3.33375C59.8707 2.3625 59.2119 1.85587 57.9991 1.85587H57.4006V4.87987H57.9702C59.2118 4.87725 59.8707 4.3365 59.8707 3.33375ZM8.71735 5.2815C8.71366 6.01383 8.54959 6.73646 8.23667 7.39858C7.92375 8.0607 7.46958 8.64623 6.9061 9.114C5.94797 9.90937 4.85597 10.2664 3.34397 10.2664H0.501099V0.283499H3.35972C6.51497 0.283499 8.71735 2.33362 8.71735 5.2815ZM6.71185 5.26575C6.71185 4.31025 6.3076 3.381 5.63297 2.77987C4.98985 2.19712 4.22597 1.97137 2.9686 1.97137H2.44622V8.57325H2.9686C4.22597 8.57325 5.02135 8.33175 5.63297 7.7805C6.30497 7.182 6.71185 6.22387 6.71185 5.26575Z" fill="white"/>
</svg>
