<svg width="49" height="16" viewBox="0 0 49 16" fill="none" xmlns="http://www.w3.org/2000/svg">
<path d="M18.724 0.276001L12.44 15.268H8.34L5.248 3.302C5.06 2.566 4.898 2.296 4.326 1.986C3.394 1.48 1.854 1.006 0.5 0.710001L0.592 0.276001H7.192C7.6233 0.275568 8.04054 0.42933 8.36842 0.70953C8.69629 0.98973 8.91321 1.37791 8.98 1.804L10.614 10.48L14.65 0.276001H18.724ZM34.79 10.374C34.806 6.416 29.318 6.198 29.356 4.43C29.368 3.892 29.88 3.32 31 3.174C32.3126 3.04934 33.6345 3.28152 34.826 3.846L35.506 0.666C34.3459 0.229891 33.1173 0.00435323 31.878 0C28.044 0 25.346 2.04 25.322 4.958C25.298 7.116 27.248 8.318 28.718 9.038C30.23 9.772 30.738 10.244 30.73 10.9C30.72 11.908 29.526 12.35 28.41 12.368C26.46 12.398 25.33 11.842 24.426 11.422L23.724 14.706C24.63 15.122 26.302 15.486 28.036 15.502C32.11 15.502 34.776 13.49 34.79 10.374ZM44.912 15.268H48.5L45.37 0.276001H42.058C41.7041 0.272721 41.3574 0.375838 41.0629 0.571978C40.7683 0.768117 40.5394 1.04823 40.406 1.376L34.588 15.268H38.66L39.47 13.028H44.446L44.912 15.268ZM40.586 9.956L42.626 4.326L43.802 9.956H40.586ZM24.266 0.276001L21.06 15.268H17.18L20.39 0.276001H24.266Z" fill="white"/>
</svg>
